<?xml version="1.0" encoding="UTF-8"?>
<svg width="269.8" height="61" version="1.1" viewBox="29.2 169 269.8 61" xmlns="http://www.w3.org/2000/svg">
 <path class="st1" d="m299 205v13.6l-13.305 11.4h-245.53c-3.4496-15.5-10.965-25-10.965-25h105.33v-15c-2.0944 0-3.8192-1.4-3.8192-3.1s1.7248-3.1 3.8192-3.1h0.616v-14.8h2.3408v14.8h6.2831v-5.1c0-1.7 1.7248-3.1 3.8191-3.1h9.9791c2.0944 0 3.8191 1.4 3.8191 3.1v5.1h10.595c2.0944 0 3.8192 1.4 3.8192 3.1s-1.7248 3.1-3.8192 3.1v4.4h22.052c3.08-0.3 4.0656 1.1 4.0656 3.6v6.9h100.9zm-62.585-3.3c3.6959 0.5 7.8847 0.4 11.088 0.4h19.096c1.232-0.2 5.6671-1.3 5.6671-1.3l0.36959-2.2h-0.98558l2.7104-4.2h-2.9568l-4.9279 4.2s-17.001 0-20.081-0.5c-3.2032-0.5-4.1887-0.7-5.2975-0.7s-2.464 0.4-2.9568 0.6c-2.3408 0.7-3.4495 0.7-4.3119 1-3.4496 1.4-1.1088 2.2 2.5872 2.7zm-162.13 0c3.6959 0.5 7.8847 0.4 11.088 0.4h19.096c1.232-0.2 5.6671-1.3 5.6671-1.3l0.3696-2.2h-0.9856l2.7104-4.2h-2.9568l-4.9279 4.2s-17.001 0-20.081-0.5c-3.2032-0.5-4.1887-0.7-5.2975-0.7-1.1088 0-2.464 0.4-2.9568 0.6-2.3408 0.7-3.4496 0.7-4.3119 1-3.4495 1.4-1.1088 2.2 2.5872 2.7z" fill="#ccc" stroke-width="1.1099"/>
</svg>
