<?xml version="1.0" encoding="utf-8"?>
<svg viewBox="599.3999633789062 321.2000427246094 724.6000366210938 130.0999755859375" width="724.6000366210938" height="130.0999755859375" xmlns="http://www.w3.org/2000/svg"><g transform="matrix(1, 0, 0, 1, 0, 0)">
		
		<path d="M1316.9,412.3v-8.5h-17v8.2c-8.1,0-23.2,0-43.5,0v-10.1h-25.2v4.9h-24.9v5.2c-4.9,0-9.9,0-15.1,0v-6.5h-8.8v-26.8h-5.6&#10;&#9;&#9;&#9;v26.8h-7.5v6.5c-8.9,0-18.1,0-27.5,0v-16h-3.6v16c-5.5,0-11.1,0-16.7,0v-8.5H1108v8.5c-3,0-6.1,0-9.2,0v-6.5l-2.9-2.9v-8.6h-11.5&#10;&#9;&#9;&#9;v8.6h-6.2V396h-8.2V391l5.2-3.6v-16.4h-23.6v-10.8h-5.6c0,0.7,0,7,0,10.8h-9.5v-49.8h-3.9v74l-7.2-7.2h-21.9v-5.2h8.5v-11.8h-5.2&#10;&#9;&#9;&#9;v7.5h-5.9v-19h12.1v-17.7h-23.6v14.7l3.6,2.3h-15.7v-7.9h-4.9v7.9h-20.6v-5.9h-9.5v6.2h-6.5v-30.1h-3.6v30.1H925v-4.9h-8.5v7.5&#10;&#9;&#9;&#9;l7.2,4.3v17h-5.6l-1.6-5.7l3.2-3.2h-8.5l-2.9,8.6l5.2,5.6v15.1h-5.2v-8.2h-8.2v8.2H891l-4.3,3.9v-5.6h-13.4l-5,10.1&#10;&#9;&#9;&#9;c-2,0-4,0-6.1,0v-6.5h-6.3v6.5c-4.3,0-8.6,0-12.9,0v-6.5h-8.3v6.5c-3.4,0-6.9,0-10.3,0v-6.5h-40.6v6.5c-3,0-6,0-8.9,0v-9.8h-2.4&#10;&#9;&#9;&#9;v9.8c-7,0-14,0-20.7,0v-11.4h-1.7V412c-8,0-15.8,0-23.4,0v-3.3h3.3v-6.5h-21.4v6.5h5.2v3.3c-6.4,0-12.6,0-18.6,0v-4h-6.1v4&#10;&#9;&#9;&#9;c-5.4,0-10.5,0-15.5,0v-4h-32.3v4c-3.1,0-6,0-8.7,0v-4h-27.7v4c-3.6,0-5.5,0-5.5,0v6.1h12.2l8.7,15.7v17.5h675.8l5.2-21&#10;&#9;&#9;&#9;c0,0,16.2-6.1,20.1-12.2C1324,414.2,1321.8,412.8,1316.9,412.3z M716,408.7h6.8v3.3c-2.3,0-4.5,0-6.8,0V408.7z" style="fill: rgb(204, 204, 204); opacity: 1;"/>
	</g></svg>