<?xml version="1.0" encoding="utf-8"?>
<svg viewBox="60 4.6999969482421875 430 113.19999694824219" width="430" height="113.19999694824219" xmlns="http://www.w3.org/2000/svg"><path class="st2" d="M490,84.9h-2.8l-0.2-0.6h-43.4V70.2h-0.7v14.1h-2.3V70.2H440v14.1h-12.8V61.1h-0.7v23.2h-19.3V61.7h-0.7v22.6&#10;&#9;&#9;&#9;h-8.7V59.6h-0.7v24.6h-24.9v-7.5l2.7-4.1l-2.7-13.1l-0.3,0.1l-0.3-0.1l-2.9,12l0,0.1l0.4,0.6v0.6h0.3l2.3,3.9v7.5h-16.7V59.6h-0.7&#10;&#9;&#9;&#9;v24.6h-11.4v-5.8h4.4v-5.1h-13v5.1h5v5.8h-12v-1.4h0.6V82h0.6v-3.4l-0.8-0.8h-4.2v-1.1l3.6-1.2l-0.2-0.6l-4.4,0.9h-4.7v2.1h-7.1v4&#10;&#9;&#9;&#9;l1.1,1.1h0.4v1.4h-3.9l-1.5-2.1h-1.9v-2.5l1.5-1.5l0-12.1l0.7-3.3h-1.4l-0.9-1.5h-4V39.7h-0.7v21.7h-3.7v-1.5h-0.6v-2.1h-0.9v-5&#10;&#9;&#9;&#9;h-0.3l0.3-1.1v-4.4h-0.6V45h0.2l0.8,0.5l1.6,0.1l-1.1-1.1v-1.1h-1.1l-0.6-0.6h-3.4v0.6h-0.6v0.9h-0.9v3.5l0.9,0.6v1.4l0.6,0.6V52&#10;&#9;&#9;&#9;h0.6v1.1l-1.9,4.7h-0.7v2.1h-0.9v2.4h-0.7l-0.7-1.2l-0.2-17.8l3-1.7h4.4v-0.9v-0.7v-3.5h-1.3v3.5H286l0-0.2l3.7-7.7h0.7h0.2&#10;&#9;&#9;&#9;l0.5-0.6h0.7l1.1-1.1V30h2.6v-0.7h-2.6V27h-0.9v-0.6h-1.8V27h-0.9v3.4l0.5,0.5l-0.3,0.5h-3.4l-0.2-10.8h7v-1.3h-0.9v-0.2h0.9v-5.7&#10;&#9;&#9;&#9;h-1.5v0.3v5.3v0.2h-5.5v-0.8h0.4l1.7-1.7v-1.1h-0.6v-0.9h-0.9v-0.6h-1.9l-0.6,0.6h-1.1v2l1,0.6l0.6,1h0.7v0.8h-0.9h-5.8V4.7h-0.7&#10;&#9;&#9;&#9;v11.1h-1.5v3.3h1.5v0.2h-0.6v1.3h7l-0.2,10.8h-6v0.7h1.3l4.6,6.6l0,0.6h-1.1v-1.5h-1.9l-0.8,0.8v0.7h-1.7v-5h-2.1v5h-1.4v-1.1&#10;&#9;&#9;&#9;h-0.7V40h2.1h2.1h1.7v0.6h0.6v0.9h1.1h0.6l1.5,1.1l-0.3,18.3h-11.5v0.6H267v-8.5h-11.2v12h-0.1l-5-5.6h-6.9l-2.3-1.3v-1.5l0.5,0.4&#10;&#9;&#9;&#9;l3.1-3.7l-3-8.1l-0.6,0.2V33.2h-0.7v12l-3,8.1l3,3.6v1.3h0.3l-0.2,0.3l1.8,1.1l0.6,1.3l-0.2-0.1l-0.6,0.6h-1.5l-0.9,1.6l-0.6,0.6&#10;&#9;&#9;&#9;l-0.7,1.6l0,5.7h-1.5v6.7l-11,3.5l-0.7-17.3l-0.7,0l-1,18.5h-0.2v1.5l0.1,0.1l0,0.4h-10.3v-1.7l-0.7-1.8h-2.9v0.6h-31.4v-0.6h-1.9&#10;&#9;&#9;&#9;l-1.7,1.7v1.9h-6.4V58.8h-0.7v25.5h-42.2V58.8h-0.7v25.5H99.2V58.8h-0.7v25.5H63.7l-2.9,2.2v2.8H60v4.2h4.5l5,24.4h407.6v-5.3&#10;&#9;&#9;&#9;l9.9-25.7l0.5-0.5h2.5V84.9z M372.2,62.9l1.9,9.3h-1.9V62.9z M372.2,72.9h1.7l-1.7,2.6V72.9z M369.2,71.6l2.3-9.2v9.8h-1.9&#10;&#9;&#9;&#9;L369.2,71.6z M370,72.9h1.5v2.6L370,72.9z M237.2,84.3h-8l8-3.3V84.3z M251.3,70.8h-3.2l0.3-0.4l0-3.7l-0.6-2v-1l-1-1.3l-0.4-0.3&#10;&#9;&#9;&#9;h0.9l3.5,3.5h0.4V70.8z M286.1,42.4l0-1h1.7L286.1,42.4z M289,32.1L289,32.1l-2.9,6.2l-0.1-6.2H289z M280.2,32.1h3.9l-0.1,5.5&#10;&#9;&#9;&#9;L280.2,32.1z M283.5,41.5h0.4l0,0.3L283.5,41.5z M241.4,45.5l2.8,7.6l-0.2,0.3v-0.5h-2.6V45.5z M241.4,53.5h2.5l-2.5,3v-0.4V53.5z&#10;&#9;&#9;&#9; M240.7,47.1v5.7h-2.1L240.7,47.1z M238.8,53.5h1.9v2.3L238.8,53.5z" style="fill: rgb(204, 204, 204); opacity: 1;" transform="matrix(1, 0, 0, 1, 0, 0)"/></svg>