<?xml version="1.0" encoding="UTF-8"?>
<svg width="120.51" height="39.7" version="1.1" viewBox="32.5 299.6 120.51 39.7" xmlns="http://www.w3.org/2000/svg">
 <path class="st2" d="m136.08 338.7c-1.1453 0-2.4178 0.1-3.9448 0.1-1.527 0-3.1813 0.1-4.8356 0.1-1.7815 0-3.4358 0.1-5.2173 0.1s-3.5631 0.1-5.2174 0.1c-1.7815 0-3.3086 0-4.8356 0.1-1.527 0-2.7996 0-3.9448 0.1h-2.6723-1.527-2.7995-3.6903-4.3266-4.4538-17.561-4.0721-3.8176-2.9268-1.527l-2.545-0.3c-0.2545-0.5-0.50901-1-0.76351-1.3-0.12725-0.3-0.38176-0.6-0.50901-0.9s-0.2545-0.5-0.38176-0.6c-0.50901 0-1.018-0.1-1.3998-0.1-0.38176 0-0.76351-0.1-1.1453-0.1h-1.018-1.1453-1.1453c-0.12725 0.5-0.38176 1-0.50901 1.5-0.12725 0.6-0.2545 1.1-0.38176 1.5v-3.1c-0.12725 0.2-0.12725 0.4-0.2545 0.7 0 0.3-0.12725 0.6-0.2545 0.9-0.12725 0.3-0.12725 0.6-0.2545 0.8-0.12725 0.2-0.2545 0.4-0.50901 0.4h-0.12725s-0.12725-0.1-0.12725-0.2c-0.12725-0.1-0.12725-0.2-0.12725-0.3s0-0.3-0.12725-0.5c0-0.2-0.12725-0.5-0.12725-0.8s0-0.5-0.12725-0.8v-0.5h-1.1453l-0.63626 2.8h-0.50901v-3l-10.307-0.8s-0.12725-0.1-0.12725-0.3c-0.12725-0.2-0.12725-0.4-0.12725-0.5-0.12725-0.5-0.2545-0.9-0.2545-1.2s-0.12725-0.7-0.12725-1v-1.1-1.4-0.6-0.9-0.9-0.6l1.2725 0.5-0.63626 0.5v2.4c0.12725 0 0.12725 0 0.38176-0.1 0.12725-0.1 0.2545-0.1 0.50901-0.2 0.12725-0.1 0.38176-0.1 0.50901-0.1h0.38176s0 0.1 0.12725 0.2c0 0.1 0 0.2 0.12725 0.3 0 0.1 0 0.2 0.12725 0.3 0 0.1 0 0.2 0.12725 0.2 0.2545 0.1 0.50901 0.1 0.63626 0.1 0.12725 0 0.38176 0.1 0.50901 0.1s0.38176 0 0.38176 0.1h0.12725 0.2545c0.12725 0 0.2545 0 0.2545-0.1s0.12725-0.1 0.12725-0.2 0.12725-0.1 0.12725-0.2 0.12725-0.1 0.38176-0.1c0.2545 0 0.38176 0 0.50901 0.1 0.12725 0.1 0.12725 0.2 0.12725 0.4l0.63626-0.5h2.9268l0.63626 0.5h6.2354c0.12725-0.2 0.2545-0.4 0.50901-0.5 0.12725-0.1 0.38176-0.1 0.63626-0.1 0.38176 0 0.50901 0 0.50901 0.1v0.1s0.12725 0.1 0.2545 0.1c0.12725 0 0.50901 0.1 1.018 0.1v-1.9c0.38176-0.2 0.63626-0.4 0.76351-0.8 0.12725-0.3 0.2545-0.7 0.38176-1.1 0.12725-0.4 0.12725-0.8 0.12725-1.1v-0.9l0.63626-0.3s0.12725-0.1 0.2545-0.4c0.12725-0.3 0.2545-0.6 0.38176-0.9 0.12725-0.4 0.2545-0.7 0.38176-1.1 0.12725-0.4 0.2545-0.7 0.2545-0.9 0.12725-0.2 0.12725-0.4 0.12725-0.6s0.12725-0.4 0.12725-0.6c0.12725-0.2 0.2545-0.3 0.38176-0.5 0.2545-0.1 0.50901-0.2 0.89077-0.2h0.12725 0.12725l-0.12725 3.6v-1.4l-0.76351-0.3c0 0.1-0.12725 0.2-0.12725 0.4-0.12725 0.2-0.12725 0.3-0.12725 0.4 0 0.2-0.12725 0.6-0.2545 1.1-0.12725 0.5-0.12725 1.1-0.2545 1.7-0.12725 0.6-0.2545 1.2-0.2545 1.7-0.12725 0.5-0.12725 0.9-0.2545 1.1v0.3 0.3c0 0.2 0 0.3 0.12725 0.4 0.12725 0.1 0.12725 0.1 0.2545 0.2 0.12725 0 0.12725 0.1 0.2545 0.1 0.12725 0 0.12725 0.1 0.12725 0.2s0 0.2-0.12725 0.2c-0.12725 0.1-0.12725 0.1-0.2545 0.2s-0.12725 0.1-0.2545 0.2c-0.12725 0.1-0.12725 0.2-0.12725 0.3 0 0.2 0 0.3 0.12725 0.4 0 0.1 0.12725 0.2 0.2545 0.4 0 0 0-0.1 0.12725-0.2 0.12725-0.1 0.12725-0.1 0.2545-0.1 0 0 0.12725 0 0.38176 0.1 0.12725 0.1 0.2545 0.1 0.38176 0.1 0 0 0.12725 0 0.12725-0.1 0.12725-0.1 0.12725-0.1 0.12725-0.2s0.12725-0.1 0.2545-0.3c0.12725-0.1 0.2545-0.3 0.2545-0.5 0.12725-0.2 0.2545-0.3 0.2545-0.5 0.12725-0.2 0.12725-0.3 0.12725-0.3h0.89077v-1l-0.63626 0.8v-0.1-0.1c0-0.3 0.12725-0.5 0.2545-0.7 0.12725-0.2 0.2545-0.4 0.50901-0.6 0.12725-0.2 0.38176-0.4 0.50901-0.6 0.12725-0.2 0.2545-0.5 0.2545-0.7v-0.3-0.3c-0.12725 0.2-0.38176 0.3-0.76351 0.3 0-0.4 0.2545-0.6 0.76351-0.6h0.38176c0.12725 0 0.2545 0.1 0.2545 0.2v-0.4-0.6c0-0.2 0-0.5 0.12725-0.7 0-0.2 0-0.5 0.12725-0.7 0-0.3 0.12725-0.5 0.12725-0.6s0.12725-0.3 0.2545-0.5 0.38176-0.3 0.50901-0.3c0.2545 0 0.38176 0.1 0.50901 0.3 0.12725 0.2 0.12725 0.4 0.12725 0.6s0.12725 0.4 0.2545 0.6c0.12725 0.2 0.2545 0.3 0.63626 0.3h6.8716v0.4l-1.9088 0.8v0.8h2.545c0.12725-0.4 0.12725-0.7 0.12725-0.9s0.12725-0.5 0.12725-0.8v-0.7-0.2-0.3-0.4-0.5-0.3-0.3-0.2c-0.2545-0.2-0.50901-0.4-0.89076-0.5s-0.63626-0.3-0.76351-0.5h0.12725 0.12725c0.2545 0 0.50901 0 0.76351 0.1s0.38176 0.2 0.63626 0.4c0.12725 0.1 0.38176 0.3 0.50901 0.4 0.12725 0.1 0.38176 0.3 0.63626 0.4v4.1l0.2545-0.2c0.12725-0.1 0.12725-0.2 0.2545-0.3 0.12725-0.1 0.12725-0.2 0.2545-0.3 0.12725-0.1 0.12725-0.2 0.12725-0.2 0.12725-0.2 0.2545-0.5 0.38176-0.9s0.38176-0.9 0.63626-1.4c0.2545-0.5 0.38176-1 0.63626-1.4 0.12725-0.4 0.2545-0.7 0.38176-0.9-0.12725-0.2-0.38176-0.3-0.63626-0.5-0.2545-0.2-0.50901-0.3-0.76351-0.4s-0.50901-0.3-0.76351-0.4-0.38176-0.2-0.63626-0.3h0.50901c1.7815 0 3.5631 0.1 5.3446 0.2 1.7815 0.2 3.5631 0.2 5.3446 0.2v-8.9c0-0.1 0-0.1-0.12725-0.2s-0.2545-0.1-0.38176-0.2c-0.12725-0.1-0.2545-0.1-0.50901-0.2 0.12725 0 0.2545 0 0.50901-0.1 0.2545-0.1 0.38176-0.1 0.50901-0.2v-0.1-0.1c-0.12725-0.1-0.2545-0.1-0.50901-0.3-0.2545-0.1-0.38176-0.2-0.50901-0.2 0.12725 0 0.12725-0.1 0.38176-0.2 0.12725-0.1 0.2545-0.2 0.2545-0.3v-0.1-0.1l-0.2545-0.2c0.12725 0 0.2545-0.1 0.2545-0.2 0.12725-0.1 0.12725-0.2 0-0.3l0.63626 0.3v-4.9l-0.38176-0.3c0.12725 0 0.2545-0.1 0.2545-0.2 0.12725-0.1 0.12725-0.3 0.2545-0.4 0-0.1 0.12725-0.3 0.12725-0.4v-0.2l0.63626 10.6h2.9268v0.6c-0.12725 0-0.2545 0.1-0.50901 0.1-0.2545 0.1-0.50901 0.1-0.76351 0.2s-0.50901 0.1-0.76351 0.2c-0.2545 0.1-0.50901 0.2-0.63626 0.2v0.2 0.3 0.3 0.2c0 1.6 0.12725 3.2 0.2545 4.8 0.12725 1.6 0.38176 3.2 0.76351 4.8 0.2545-0.2 0.38176-0.5 0.50901-0.9 0.12725-0.4 0.12725-0.7 0.2545-0.9h0.12725 0.12725 0.12725c0.2545 0.1 0.38176 0.3 0.50901 0.6s0.12725 0.6 0.12725 0.8v0.3h0.50901v-1h1.018v1h0.63626v-3.1h0.50901v0.4c0 0.2 0 0.4 0.12725 0.6 0 0.2 0.12725 0.4 0.12725 0.5 0 0.2 0.12725 0.3 0.12725 0.3s0 0.1 0.12725 0.1l0.12725 0.1v0.1 0.1l-0.38176 0.3v0.1 0.1 0.1c0.38176 0.1 0.63626 0.2 0.76351 0.2 0.2545 0 0.38176 0.1 0.50901 0.1h0.50901 0.89076v-3h1.527c-0.2545 0.4-0.2545 0.8 0 1.1s0.76351 0.5 1.2725 0.7c0.50901 0.2 1.1453 0.3 1.7815 0.4 0.63626 0.1 1.1453 0.1 1.3998 0.1v0.4c0 0.1 0.12725 0.1 0.2545 0.1 0.12725 0 0.12725 0 0.2545-0.1 0.12725 0 0.2545-0.1 0.38176-0.1v-0.5-0.3c0-0.1 0-0.2-0.12725-0.3 0-0.1-0.12725-0.3-0.2545-0.5h0.76352v1.8s0.12725 0.1 0.2545 0.1c0.25451 0.1 0.38176 0.1 0.50901 0.1h0.50901 0.63626 0.50901 0.509c0-0.1 0.12726-0.3 0.12726-0.5s0.12726-0.5 0.12726-0.7c0.12725-0.2 0.2545-0.4 0.38175-0.6 0.12726-0.2 0.38176-0.3 0.63626-0.3 0 0-0.12725-0.1-0.38176-0.1-0.12724-0.1-0.2545-0.1-0.2545-0.1v-0.1-0.1s0.12726-0.1 0.38176-0.2 0.38175-0.1 0.38175-0.1v-3.2c0.25451 0 0.50902-0.1 0.63626-0.2 0.12726-0.1 0.25451-0.3 0.38176-0.4 0.12725-0.2 0.12725-0.4 0.25451-0.5 0.12725-0.2 0.12725-0.3 0.2545-0.5h0.38176v1.5h1.9088v-3.6c-0.25451-0.2-0.25451-0.4-0.38177-0.6 0-0.2-0.12725-0.5-0.12725-0.7h1.7815v0.7c0 0.2-0.12724 0.4-0.38176 0.6v3.3l0.38176 0.3h0.50901 0.76351 3.8176 0.76351 0.50901s0.12725 0 0.38176 0.1c0.12724 0 0.38175 0.1 0.63625 0.1 0.25452 0 0.38176 0.1 0.63627 0.1 0.12725 0 0.2545 0.1 0.38176 0.1h-2.036c0.12725 0 0.2545 0.1 0.509 0.1 0.25451 0.1 0.63627 0.1 0.89077 0.2 0.25451 0.1 0.63627 0.2 0.89077 0.3s0.38175 0.3 0.38175 0.4c0 0.2 0 0.4-0.12725 0.5-0.12725 0.2-0.12725 0.3-0.2545 0.5-0.12726 0.2-0.12726 0.3-0.2545 0.5-0.12726 0.2-0.12726 0.4-0.12726 0.6v1.1c0 0.3 0 0.6 0.12726 0.9 0 0.3 0.12724 0.6 0.2545 1 0.12725 0.3 0.2545 0.7 0.38175 1.2 0.25451 0.1 0.38176 0.2 0.38176 0.4s0.12726 0.4 0.12726 0.6 0.12724 0.4 0.12724 0.6c0.12726 0.2 0.25451 0.2 0.50901 0.2 0.25451 0 0.38176 0 0.50901-0.1 0.12726-0.1 0.12726-0.2 0.12726-0.4l0.76351 0.5v-2.7c0.2545 0 0.509-0.1 0.63626-0.2s0.25451-0.3 0.38176-0.4c0.12725-0.2 0.12725-0.4 0.25451-0.5 0.12724-0.2 0.12724-0.3 0.2545-0.5-0.12726 0.3-0.12726 0.5 0 0.6 0.12725 0.1 0.12725 0.2 0.38175 0.2h0.50902 0.509c0.63626 0.1 1.1453 0.2 1.3998 0.4s0.38175 0.4 0.50901 0.7c0.12724 0.3 0.12724 0.5 0.2545 0.8 0 0.3 0.25451 0.6 0.50901 0.9 0 0 0.12726 0.1 0.12726 0.3 0.12724 0.1 0.12724 0.2 0.12724 0.3 0.12726 0 0.25451-0.1 0.25451-0.2 0.12725-0.1 0.12725-0.2 0-0.3l0.2545 0.2c0.12726 0.1 0.2545 0.1 0.38176 0.1h0.63626 1.018 1.018 0.63627v0.6h0.89077 1.1453c0.38175 0 0.76351 0 1.1453-0.1 0.38176 0 0.63626-0.1 0.76352-0.2 0.2545-0.1 0.50901-0.3 0.50901-0.4v-0.3c0-0.1 0-0.2 0.12725-0.2 0.12725-0.1 0.38176-0.1 0.76352-0.1h0.509c0.12725 0.1 0.25451 0.3 0.25451 0.5 0.12724 0.2 0.12724 0.4 0 0.5h4.1993v-0.3c0.12725 0.1 0.25451 0.2 0.38175 0.2 0.12726 0 0.12726 0.1 0.25451 0.1h0.25451 0.38175v-0.2l0.63627 0.3h0.509 0.89077 1.018 1.1453 0.76351c0.2545 0 0.50901 0 0.76351-0.1 0.38176 0 0.63626-0.1 0.89077-0.1 0.2545-0.1 0.63626-0.1 0.76352-0.2 0.2545-0.1 0.38175-0.1 0.38175-0.1l0.38176-0.5c0 0.2 0 0.4 0.12725 0.4 0.12725 0.1 0.2545 0.1 0.38176 0.1 0.12724 0 0.2545-0.1 0.509-0.1 0.12726-0.1 0.25451-0.1 0.38177-0.1v-2.4l-0.63627 1v-0.1-0.1-0.1-0.1c0-0.1 0.12726-0.2 0.2545-0.5 0.12726-0.2 0.12726-0.5 0.25451-0.7 0.12726-0.2 0.2545-0.5 0.2545-0.7 0.12726-0.2 0.12726-0.4 0.25451-0.4 0 0.2 0 0.5 0.12725 1 0 0.5 0.12725 0.9 0.12725 1.5 0 0.5 0 1 0.12726 1.5v1 0.3s-0.12726 0.1-0.25451 0.2-0.2545 0.1-0.38176 0.1c-0.12724 0.2-0.38175 0.4-0.63625 0.7-0.25452 0.3-0.63627 0.7-1.018 1.1-0.38175 0.4-0.76351 0.8-1.1453 1.3-0.38175 0.4-0.76351 0.9-1.1453 1.3-0.38175 0.4-0.63625 0.8-1.018 1.1-0.25451 0.3-0.50901 0.6-0.63627 0.7-0.50901 0.6-1.018 1.3-1.527 2s-1.018 1.4-1.6543 2.1-1.2725 1.2-2.1633 1.7c-0.76352 0.5-1.7815 0.8-2.7996 0.9-0.509-0.5-1.3998-0.5-2.545-0.5zm-83.605-9.3c0 0.1 0 0.2 0.12725 0.3 0 0 0.12725 0 0.12725-0.1v-0.2-0.2c0-0.1-0.12725-0.1-0.12725-0.1 0 0.1-0.12725 0.2-0.12725 0.3zm4.5811 0.7c0 0.1 0 0.1 0.12725 0.1 0.12725 0 0.12725 0 0.12725-0.1s0-0.2-0.12725-0.1c0 0-0.12725 0-0.12725 0.1zm1.2725-0.1c0 0.2 0.12725 0.3 0.2545 0.3 0.12725 0 0.2545-0.1 0.2545-0.3s-0.12725-0.3-0.2545-0.3c-0.12725 0-0.2545 0.1-0.2545 0.3zm0.76352 0.1c0 0.1 0 0.1 0.12725 0.1 0.12725 0 0.12725 0 0.12725-0.1s0-0.2-0.12725-0.1c-0.12725 0-0.12725 0-0.12725 0.1zm0-3.1v0.5 0.5c0 0.2 0 0.3 0.12725 0.4 0 0.1 0.12725 0 0.12725-0.2v-0.7-0.7c0-0.2-0.12725-0.3-0.12725-0.2s-0.12725 0.2-0.12725 0.4zm3.1813-3.3c0 0.2 0 0.3 0.12725 0.4 0 0 0.12725 0 0.12725-0.1v-0.3-0.3c0-0.1-0.12725-0.1-0.12725-0.1 0 0.1-0.12725 0.2-0.12725 0.4zm7.8896-4c0 0.2-0.12725 0.3-0.2545 0.3-0.12725 0-0.2545-0.1-0.2545-0.3s0.12725-0.3 0.2545-0.3c0.2545 0.1 0.2545 0.1 0.2545 0.3zm12.725-13.4c0 0.1 0 0.1 0.12725 0.1 0.12725 0 0.12725 0 0.12725-0.1s0-0.2-0.12725-0.2c-0.12725 0.1-0.12725 0.1-0.12725 0.2zm1.527 3.9c0 0.2 0.12725 0.3 0.2545 0.3 0.12725 0 0.2545-0.1 0.2545-0.3s-0.12725-0.3-0.2545-0.3c-0.2545 0.1-0.2545 0.2-0.2545 0.3zm0.63626 0c0 0.2 0.12725 0.3 0.2545 0.3s0.2545-0.1 0.2545-0.3-0.12725-0.3-0.2545-0.3-0.2545 0.2-0.2545 0.3zm1.018 0.2c0.12725 0 0.12725 0 0.12725-0.1s0-0.1-0.12725-0.1-0.2545 0-0.12725 0.1zm13.489 11.1c0 0.2-0.12725 0.3-0.2545 0.3-0.12725 0-0.2545-0.1-0.2545-0.3s0.12725-0.3 0.2545-0.3c0.12725 0 0.2545 0.1 0.2545 0.3zm5.4718-5c0 0.1 0 0.1 0.12726 0.1 0.12725 0 0.12725 0 0.12725-0.1s0-0.2-0.12725-0.1c-0.12726 0-0.12726 0.1-0.12726 0.1zm1.3998-0.1v0.3c0.12726 0 0.38176 0 0.50901-0.1 0.2545 0 0.38176-0.1 0.38176-0.3h-0.89077zm1.6543 0.2h0.38176v-0.3zm1.2725-0.2v0.3h2.545v-0.3zm3.3086 0v0.3h1.9088v-0.3zm9.0349 8.9h0.38176v-0.3zm1.2725-2.3v0.4 0.4c0 0.1 0 0.2 0.12726 0.3 0 0.1 0.12724 0 0.12724-0.2v-0.5-0.5c0-0.1-0.12724-0.2-0.12724-0.1-0.12726 0-0.12726 0.1-0.12726 0.2zm1.7815-0.2c-0.12726-0.2-0.25451-0.3-0.50901-0.3h-0.63627c0 0.1 0.12726 0.2 0.25451 0.4s0.2545 0.3 0.50901 0.5c0.12725 0.2 0.38176 0.3 0.509 0.4 0.12726 0.1 0.38176 0.2 0.38176 0.3v-0.3-0.3-0.5c0-0.2-0.12724-0.3-0.38176-0.5zm1.018 2.3c0 0.2 0.12726 0.3 0.2545 0.3 0.12726 0 0.25451-0.1 0.25451-0.3s-0.12725-0.3-0.25451-0.3c-0.2545 0-0.2545 0.1-0.2545 0.3zm0.2545-0.3c0 0.2 0.12726 0.3 0.25451 0.3 0.12726 0 0.2545-0.1 0.2545-0.3s-0.12724-0.3-0.2545-0.3c-0.12725 0.1-0.25451 0.2-0.25451 0.3zm25.45-1.2v0.2 0.2c0 0.1-0.12724 0.1-0.12724 0.1-0.12726 0-0.12726-0.1-0.12726-0.3 0-0.1 0.12726-0.2 0.2545-0.2v0z" fill="#ccc" stroke-width="1.1281"/>
</svg>
