<?xml version="1.0" encoding="utf-8"?>
<svg viewBox="478.3000183105469 402.8000183105469 427.7999572753906 170.39999389648438" width="427.7999572753906" height="170.39999389648438" xmlns="http://www.w3.org/2000/svg"><g transform="matrix(1, 0, 0, 1, 0, 0)">
	<path class="st0" d="M675,441.9h150.5v-1.9c0-16-13-29-29-29h-52.1C717.8,410.9,692.6,422.3,675,441.9z M797.5,422h8.6v7.5h-8.6&#10;&#9;&#9;V422z M776.8,422h8.6v7.5h-8.6V422z M756.1,422h8.6v7.5h-8.6V422z M735.4,422h8.6v7.5h-8.6V422z M714.7,422h8.6v7.5h-8.6V422z" style="fill: rgb(204, 204, 204); opacity: 1;"/>
	<path class="st0" d="M483.5,459c-2.9,0-5.2,2.3-5.2,5.2v48.2c0,2.9,2.3,5.2,5.2,5.2c2.9,0,5.2-2.3,5.2-5.2v-19h5v-8.8h-5v-20.4&#10;&#9;&#9;C488.7,461.4,486.4,459,483.5,459z" style="fill: rgb(204, 204, 204); opacity: 1;"/>
	<path class="st0" d="M511.3,435.2c0,7.6,0,19.2,0,29.9l49.1-12.4l-19.8-49.9C540.6,402.9,511.3,418,511.3,435.2z" style="fill: rgb(204, 204, 204); opacity: 1;"/>
	<path class="st0" d="M560.2,523.9l-48.9-12.3c0,10.5,0,21.9,0,29.3c0,17.2,29.3,32.3,29.3,32.3L560.2,523.9z" style="fill: rgb(204, 204, 204); opacity: 1;"/>
	<path class="st0" d="M906.1,488.3c0-23.1-18.7-41.8-41.8-41.8h-38.8H671h-66.8l-42.1,10.6l-50.9,12.8l-2.4,0.6&#10;&#9;&#9;c-6.2,1.6-10.5,6.7-10.5,11.6v2.5v8.8v1.1c0,5,4.3,10,10.5,11.6l2.4,0.6l50.6,12.7l42.3,10.6h260&#10;&#9;&#9;C887.4,530.1,906.1,511.4,906.1,488.3L906.1,488.3z M621.1,468.6h-8.6v-7.5h8.6V468.6z M641.8,468.6h-8.6v-7.5h8.6V468.6z&#10;&#9;&#9; M662.5,468.6h-8.6v-7.5h8.6V468.6z M683.2,468.6h-8.6v-7.5h8.6V468.6z M703.8,468.6h-8.6v-7.5h8.6V468.6z M726.1,468.6h-8.6v-7.5&#10;&#9;&#9;h8.6V468.6z M746.8,468.6h-8.6v-7.5h8.6V468.6z M767.5,468.6h-8.6v-7.5h8.6V468.6z M788.2,468.6h-8.6v-7.5h8.6V468.6z M808.9,468.6&#10;&#9;&#9;h-8.6v-7.5h8.6V468.6z M828.9,468.6h-8.6v-7.5h8.6V468.6z M849.6,468.6h-8.6v-7.5h8.6V468.6z" style="fill: rgb(204, 204, 204); opacity: 1;"/>
</g></svg>